<svg width="140" height="86" viewBox="0 0 140 86" fill="none" xmlns="http://www.w3.org/2000/svg">
<path d="M69.2821 85.6221C68.808 85.6221 68.3656 85.4957 67.9547 85.2745L63.7513 82.7777C63.1192 82.4301 63.4353 82.3036 63.6249 82.2404C64.4782 81.956 64.6362 81.8928 65.5212 81.3871C65.616 81.3239 65.7424 81.3555 65.8372 81.4187L69.0609 83.3466C69.1873 83.4098 69.3453 83.4098 69.4401 83.3466L82.0504 76.0459C82.1768 75.9827 82.24 75.8563 82.24 75.6983V61.1286C82.24 60.9705 82.1768 60.8441 82.0504 60.7809L69.4401 53.5119C69.3137 53.4487 69.1557 53.4487 69.0609 53.5119L56.4506 60.7809C56.3242 60.8441 56.261 61.0021 56.261 61.1286V75.6983C56.261 75.8247 56.3242 75.9827 56.4506 76.0459L59.8955 78.037C61.7602 78.9851 62.9296 77.879 62.9296 76.7728V62.3927C62.9296 62.2031 63.0876 62.0135 63.3088 62.0135H64.9207C65.1103 62.0135 65.2999 62.1715 65.2999 62.3927V76.7728C65.2999 79.2696 63.9409 80.7234 61.5706 80.7234C60.8437 80.7234 60.2748 80.7234 58.663 79.9333L55.3445 78.037C54.5228 77.5629 54.0171 76.678 54.0171 75.7299V61.1602C54.0171 60.212 54.5228 59.3271 55.3445 58.853L67.9547 51.5524C68.7448 51.1099 69.8194 51.1099 70.6095 51.5524L83.2197 58.853C84.0415 59.3271 84.5471 60.212 84.5471 61.1602V75.7299C84.5471 76.678 84.0415 77.5629 83.2197 78.037L70.6095 85.3377C70.1986 85.5273 69.7246 85.6221 69.2821 85.6221ZM73.1695 75.6035C67.6387 75.6035 66.5009 73.0751 66.5009 70.926C66.5009 70.7364 66.6589 70.5467 66.8802 70.5467H68.5236C68.7132 70.5467 68.8713 70.6731 68.8713 70.8628C69.1241 72.5378 69.851 73.3595 73.2011 73.3595C75.8559 73.3595 76.9936 72.7591 76.9936 71.3368C76.9936 70.5151 76.6776 69.9146 72.5374 69.5038C69.0925 69.1561 66.9434 68.3976 66.9434 65.648C66.9434 63.0881 69.0925 61.571 72.6954 61.571C76.7408 61.571 78.7319 62.9616 78.9847 65.9957C78.9847 66.0905 78.9531 66.1853 78.8899 66.2801C78.8267 66.3433 78.7319 66.4065 78.6371 66.4065H76.9936C76.8356 66.4065 76.6776 66.2801 76.646 66.1221C76.2667 64.3838 75.287 63.815 72.6954 63.815C69.7878 63.815 69.4401 64.8263 69.4401 65.5848C69.4401 66.5013 69.851 66.7858 73.77 67.2915C77.6573 67.7971 79.4904 68.524 79.4904 71.242C79.4588 74.0232 77.1833 75.6035 73.1695 75.6035Z" fill="#4F674A"/>
<path d="M30.1582 28.6392C30.1582 28.0703 29.8421 27.5331 29.3365 27.2486L15.9361 19.5371C15.7149 19.4107 15.462 19.3475 15.2092 19.3159H15.0828C14.8299 19.3159 14.5771 19.4107 14.3559 19.5371L0.955509 27.2486C0.449835 27.5331 0.133789 28.0703 0.133789 28.6392L0.165394 49.3718C0.165394 49.6563 0.323417 49.9407 0.576254 50.0671C0.829091 50.2252 1.14514 50.2252 1.36637 50.0671L9.33073 45.5161C9.83641 45.2316 10.1525 44.6944 10.1525 44.1255V34.4229C10.1525 33.854 10.4685 33.3167 10.9742 33.0323L14.3559 31.0728C14.6087 30.9148 14.8931 30.8515 15.1776 30.8515C15.462 30.8515 15.7465 30.9148 15.9677 31.0728L19.3494 33.0323C19.8551 33.3167 20.1711 33.854 20.1711 34.4229V44.1255C20.1711 44.6944 20.4872 45.2316 20.9928 45.5161L28.9572 50.0671C29.21 50.2252 29.5261 50.2252 29.7789 50.0671C30.0318 49.9407 30.1898 49.6563 30.1898 49.3718L30.1582 28.6392Z" fill="#333333"/>
<path d="M94.5698 0.100253C94.317 -0.0261648 94.001 -0.0261648 93.7797 0.100253C93.5269 0.258276 93.3689 0.511113 93.3689 0.795553V21.3385C93.3689 21.5281 93.2741 21.7178 93.0844 21.8442C92.8948 21.939 92.7052 21.939 92.5155 21.8442L89.1655 19.9163C88.6598 19.6319 88.0593 19.6319 87.5536 19.9163L74.1533 27.6594C73.6476 27.9439 73.3315 28.4811 73.3315 29.05V44.5046C73.3315 45.0735 73.6476 45.6108 74.1533 45.8952L87.5536 53.6384C88.0593 53.9228 88.6598 53.9228 89.1655 53.6384L102.566 45.8952C103.071 45.6108 103.388 45.0735 103.388 44.5046V5.9787C103.388 5.37821 103.071 4.84094 102.566 4.55649L94.5698 0.100253ZM93.3373 39.4163C93.3373 39.5743 93.2741 39.7008 93.1476 39.764L88.565 42.4187C88.4385 42.482 88.2805 42.482 88.1541 42.4187L83.5714 39.764C83.445 39.7008 83.3818 39.5427 83.3818 39.4163V34.1067C83.3818 33.9487 83.445 33.8223 83.5714 33.7591L88.1541 31.1043C88.2805 31.0411 88.4385 31.0411 88.565 31.1043L93.1476 33.7591C93.2741 33.8223 93.3373 33.9803 93.3373 34.1067V39.4163Z" fill="#333333"/>
<path d="M139.164 33.9803C139.67 33.6958 139.954 33.1586 139.954 32.5897V28.8287C139.954 28.2599 139.638 27.7226 139.164 27.4381L125.858 19.7266C125.353 19.4422 124.752 19.4422 124.246 19.7266L110.846 27.4697C110.34 27.7542 110.024 28.2915 110.024 28.8603V44.315C110.024 44.8839 110.34 45.4211 110.846 45.7056L124.152 53.2907C124.657 53.5751 125.258 53.5751 125.732 53.2907L133.791 48.8028C134.044 48.6764 134.202 48.392 134.202 48.1075C134.202 47.8231 134.044 47.5386 133.791 47.4122L120.328 39.6691C120.075 39.5111 119.917 39.2582 119.917 38.9738V34.1383C119.917 33.8539 120.075 33.5694 120.328 33.443L124.531 31.0411C124.784 30.883 125.1 30.883 125.353 31.0411L129.556 33.443C129.809 33.601 129.967 33.8539 129.967 34.1383V37.9309C129.967 38.2153 130.125 38.4997 130.378 38.6262C130.631 38.7842 130.947 38.7842 131.2 38.6262L139.164 33.9803Z" fill="#333333"/>
<path d="M124.844 33.2534C124.939 33.1902 125.065 33.1902 125.16 33.2534L127.72 34.7388C127.815 34.802 127.878 34.8968 127.878 35.0232V37.994C127.878 38.1205 127.815 38.2153 127.72 38.2785L125.16 39.7639C125.065 39.8271 124.939 39.8271 124.844 39.7639L122.284 38.2785C122.189 38.2153 122.126 38.1205 122.126 37.994V35.0232C122.126 34.8968 122.189 34.802 122.284 34.7388L124.844 33.2534Z" fill="#4F674A"/>
<path d="M52.5652 19.7899C52.0595 19.5055 51.459 19.5055 50.9533 19.7899L37.6478 27.4698C37.1421 27.7542 36.8577 28.2915 36.8577 28.8604V44.2518C36.8577 44.8207 37.1737 45.358 37.6478 45.6424L50.9533 53.3223C51.459 53.6067 52.0595 53.6067 52.5652 53.3223L65.8707 45.6424C66.3764 45.358 66.6608 44.8207 66.6608 44.2518V28.8604C66.6608 28.2915 66.3448 27.7542 65.8707 27.4698L52.5652 19.7899Z" fill="url(#paint0_linear_2024_135)"/>
<mask id="mask0_2024_135" style="mask-type:luminance" maskUnits="userSpaceOnUse" x="36" y="19" width="31" height="35">
<path d="M52.5652 19.7899C52.0595 19.5055 51.459 19.5055 50.9533 19.7899L37.6478 27.4698C37.1421 27.7542 36.8577 28.2915 36.8577 28.8604V44.2518C36.8577 44.8207 37.1737 45.358 37.6478 45.6424L50.9533 53.3223C51.459 53.6067 52.0595 53.6067 52.5652 53.3223L65.8707 45.6424C66.3764 45.358 66.6608 44.8207 66.6608 44.2518V28.8604C66.6608 28.2915 66.3448 27.7542 65.8707 27.4698L52.5652 19.7899Z" fill="white"/>
</mask>
<g mask="url(#mask0_2024_135)">
<path d="M65.904 27.4699L52.5352 19.79C52.4088 19.7268 52.2508 19.6636 52.1244 19.632L37.1438 45.2949C37.2702 45.4529 37.4282 45.5794 37.5863 45.6742L50.955 53.3541C51.3343 53.5753 51.7767 53.6385 52.1876 53.5121L66.2516 27.786C66.1568 27.6596 66.0304 27.5647 65.904 27.4699Z" fill="url(#paint1_linear_2024_135)"/>
</g>
<mask id="mask1_2024_135" style="mask-type:luminance" maskUnits="userSpaceOnUse" x="36" y="19" width="31" height="35">
<path d="M52.5652 19.7899C52.0595 19.5055 51.459 19.5055 50.9533 19.7899L37.6478 27.4698C37.1421 27.7542 36.8577 28.2915 36.8577 28.8604V44.2518C36.8577 44.8207 37.1737 45.358 37.6478 45.6424L50.9533 53.3223C51.459 53.6067 52.0595 53.6067 52.5652 53.3223L65.8707 45.6424C66.3764 45.358 66.6608 44.8207 66.6608 44.2518V28.8604C66.6608 28.2915 66.3448 27.7542 65.8707 27.4698L52.5652 19.7899Z" fill="white"/>
</mask>
<g mask="url(#mask1_2024_135)">
<path fill-rule="evenodd" clip-rule="evenodd" d="M65.9351 45.6424C66.3143 45.4212 66.5988 45.0419 66.7252 44.6311L52.0606 19.6003C51.6814 19.5371 51.2705 19.5687 50.9229 19.7899L37.6489 27.4382L51.9658 53.5436C52.1554 53.512 52.3767 53.4487 52.5663 53.3539L65.9351 45.6424Z" fill="url(#paint2_linear_2024_135)"/>
<path fill-rule="evenodd" clip-rule="evenodd" d="M65.9364 45.6425L52.5993 53.3224C52.4096 53.4172 52.22 53.4804 51.9988 53.512L52.2516 53.9861L67.0426 45.4213V45.2317L66.6633 44.5996C66.6001 45.042 66.3157 45.4213 65.9364 45.6425Z" fill="url(#paint3_linear_2024_135)"/>
<path fill-rule="evenodd" clip-rule="evenodd" d="M65.9364 45.6425L52.5993 53.3224C52.4096 53.4172 52.22 53.4804 51.9988 53.512L52.2516 53.9861L67.0426 45.4213V45.2317L66.6633 44.5996C66.6001 45.042 66.3157 45.4213 65.9364 45.6425Z" fill="url(#paint4_linear_2024_135)"/>
</g>
<defs>
<linearGradient id="paint0_linear_2024_135" x1="2069.09" y1="613.413" x2="610.624" y2="2905.01" gradientUnits="userSpaceOnUse">
<stop stop-color="#41873F"/>
<stop offset="0.3288" stop-color="#418B3D"/>
<stop offset="0.6352" stop-color="#616A60"/>
<stop offset="0.9319" stop-color="#3FA92D"/>
<stop offset="1" stop-color="#4D6549"/>
</linearGradient>
<linearGradient id="paint1_linear_2024_135" x1="1296.83" y1="1892.31" x2="4949.33" y2="-92.0868" gradientUnits="userSpaceOnUse">
<stop offset="0.1376" stop-color="#41873F"/>
<stop offset="0.4032" stop-color="#54A044"/>
<stop offset="0.7136" stop-color="#66B848"/>
<stop offset="0.9081" stop-color="#6CC04A"/>
</linearGradient>
<linearGradient id="paint2_linear_2024_135" x1="-89.961" y1="1718.08" x2="2988.87" y2="1718.08" gradientUnits="userSpaceOnUse">
<stop offset="0.0919165" stop-color="#6CC04A"/>
<stop offset="0.2864" stop-color="#66B848"/>
<stop offset="0.5968" stop-color="#54A044"/>
<stop offset="0.8624" stop-color="#41873F"/>
</linearGradient>
<linearGradient id="paint3_linear_2024_135" x1="-1510.46" y1="516.513" x2="1568.36" y2="516.513" gradientUnits="userSpaceOnUse">
<stop offset="0.0919165" stop-color="#6CC04A"/>
<stop offset="0.2864" stop-color="#66B848"/>
<stop offset="0.5968" stop-color="#54A044"/>
<stop offset="0.8624" stop-color="#41873F"/>
</linearGradient>
<linearGradient id="paint4_linear_2024_135" x1="2016.91" y1="-1936.62" x2="1236.93" y2="2150.5" gradientUnits="userSpaceOnUse">
<stop stop-color="#4A584A"/>
<stop offset="0.3288" stop-color="#418B3D"/>
<stop offset="0.6352" stop-color="#419637"/>
<stop offset="0.9319" stop-color="#3FA92D"/>
<stop offset="1" stop-color="#3FAE2A"/>
</linearGradient>
</defs>
</svg>
