<svg width="106" height="106" viewBox="0 0 106 106" fill="none" xmlns="http://www.w3.org/2000/svg">
<path fill-rule="evenodd" clip-rule="evenodd" d="M69.2368 27.6234C66.9942 20.6405 63.3968 14.4603 58.3275 9.1421C57.046 7.79684 55.6215 6.56441 54.7275 4.89102C54.1625 3.8317 53.6243 2.75773 53.0739 1.69152L52.7243 0.812195L52.6269 1.15841C52.5813 2.89812 51.596 4.07715 50.3696 5.17868C48.9882 6.41714 47.7032 7.76239 46.3769 9.06201L42.2981 14.4267L39.0004 20.4915L36.7948 26.447L36.7284 26.5391C35.5149 30.5258 34.9164 34.6253 34.6227 38.7644C34.5116 40.3207 34.6391 41.8985 34.7261 43.4625C34.8509 45.6983 35.2394 47.8953 35.8216 50.0596C37.9376 57.9192 42.2326 64.438 48.1054 69.9774C49.1958 71.0066 50.3748 71.9428 51.5125 72.9212L52.0163 74.6505L52.4848 77.3342L52.7088 80.1358C52.7062 80.7042 52.6829 81.2752 52.7165 81.8419C52.726 81.9874 52.9155 82.1218 53.0223 82.2613L53.9731 82.5955L54.9626 82.9804L54.793 80.4906L54.7852 78.0378L55.1271 74.3017L55.3752 73.4887L56.0857 72.2305C56.9624 71.526 57.902 70.8852 58.7004 70.1006C60.1447 68.6821 61.5864 67.2439 62.8792 65.6893C64.556 63.6732 65.9994 61.4727 67.1587 59.1129C67.9329 57.5343 68.6632 55.9238 69.267 54.2745C69.7992 52.8207 70.1291 51.292 70.5485 49.796L70.6587 49.4731C71.5243 45.4356 71.6698 41.3568 71.352 37.2521C71.0963 33.9441 70.3186 30.7515 69.2368 27.6234ZM52.0981 70.9222C52.2308 70.2582 52.3953 69.5976 52.515 68.931C52.3953 69.5976 52.2316 70.2582 52.0981 70.9222ZM89.6233 86.8198C88.9119 85.4565 87.868 84.4213 86.4883 83.7418C85.3326 83.1734 84.0898 82.9236 82.8117 82.8874C81.854 82.8599 80.8929 82.909 79.9334 82.921C79.0817 82.9313 78.229 82.946 77.3773 82.9382C76.3757 82.9279 75.374 82.8978 74.3724 82.8693C74.2062 82.8642 74.0882 82.8978 74.0107 83.0666C73.8893 83.3292 73.7454 83.5824 73.5964 83.8701L73.7635 83.9235C74.2604 84.0113 74.76 84.0863 75.2543 84.1853C75.8899 84.3119 76.1758 84.6771 76.2051 85.2128C76.2482 85.9758 76.2654 86.7406 76.2628 87.5054C76.2499 90.5318 76.2284 93.5582 76.206 96.5837C76.2043 96.7835 76.2008 96.9919 76.1466 97.1797C76.0837 97.3967 76.0157 97.6775 75.8537 97.7843C75.5738 97.9703 75.2268 98.096 74.8935 98.1503C74.4103 98.2295 74.3293 98.2511 74.1786 98.7265L74.1132 98.9642C74.0408 99.2234 74.0796 99.2742 74.35 99.2768C75.902 99.294 77.4531 99.3276 79.0042 99.3225C80.4192 99.3173 81.8342 99.4034 83.244 99.1373C84.5764 98.8867 85.82 98.4474 86.9551 97.7042C88.4279 96.7387 89.4872 95.4486 90.0461 93.7649C90.4974 92.405 90.5982 91.0175 90.4449 89.5956C90.3407 88.6147 90.0771 87.6906 89.6233 86.8198ZM86.9043 95.1403C86.0741 96.6853 84.8356 97.7171 83.0658 97.9893C81.9574 98.1589 80.8472 98.1098 79.7905 97.6904C79.1213 97.4251 78.8724 96.8473 78.8517 96.1643C78.8319 95.4951 78.8242 94.8251 78.8233 94.1559C78.8199 91.8013 78.8199 89.4466 78.8233 87.0928C78.825 86.3513 78.8379 85.6081 78.85 84.8657C78.8586 84.3438 78.968 84.1689 79.477 84.1267C81.7128 83.939 83.8461 84.1801 85.6176 85.7536C86.7131 86.7268 87.3367 87.9679 87.5959 89.3932C87.7036 89.9875 87.7363 90.5955 87.8035 91.1984C87.7492 92.5746 87.5632 93.9139 86.9043 95.1403ZM105.67 92.5901C105.229 91.517 104.394 90.8444 103.344 90.4138C102.985 90.2665 102.616 90.1451 102.229 90.0021L102.364 89.916C102.782 89.6481 103.247 89.432 103.607 89.1021C104.482 88.3003 104.846 87.2918 104.675 86.0938C104.513 84.9544 103.945 84.1181 102.929 83.5756C102.008 83.0846 101.014 82.9055 99.9857 82.9064C98.2064 82.9081 96.4262 82.9348 94.6469 82.9382C94.0337 82.9391 93.4205 82.8934 92.8073 82.8848C92.6884 82.8831 92.5119 82.9133 92.461 82.9925C92.3207 83.2078 92.2277 83.4558 92.1278 83.6953C92.0701 83.8348 92.1269 83.9114 92.2862 83.9321C92.7143 83.9907 93.1414 84.0639 93.5703 84.1276C94.1629 84.2163 94.4497 84.5246 94.4858 85.1215L94.4936 85.4754C94.4944 87.3314 94.5005 89.1874 94.4927 91.0434C94.4832 92.8959 94.4626 94.7501 94.4402 96.6035C94.4376 96.8369 94.4057 97.0712 94.3721 97.3028C94.3213 97.6525 94.1344 97.8937 93.7762 97.9694L92.7625 98.1693C92.6428 98.1934 92.4697 98.1899 92.4206 98.264C92.2345 98.5422 92.0847 98.8462 92.1054 99.2131L92.2096 99.2415L95.6141 99.325L96.297 99.3225C97.4752 99.3087 98.6551 99.3319 99.8316 99.2716C101.105 99.2079 102.302 98.8298 103.407 98.1796C104.585 97.4863 105.491 96.5725 105.813 95.198C106.02 94.3204 106.02 93.4376 105.67 92.5901ZM97.0205 84.6831C97.0256 84.3102 97.1901 84.1483 97.5605 84.1388C98.4725 84.1138 99.3785 84.119 100.259 84.4333C101.397 84.8399 102.097 85.8217 102.085 87.0214C102.079 87.4821 102.085 87.9386 101.916 88.3813C101.581 89.2528 100.938 89.7127 100.027 89.8023C99.5516 89.8505 99.0719 89.8557 98.6482 89.8781L97.234 89.8161C97.0463 89.8092 96.9645 89.7265 96.9653 89.5336L97.0205 84.6831ZM102.882 96.3047C102.426 97.296 101.596 97.817 100.557 97.9979C99.7256 98.1426 98.8876 98.1004 98.066 97.8885C97.458 97.7326 97.2099 97.2443 97.0885 96.7026C97.0067 96.34 97.0205 95.9085 97.0136 95.5313C97.0024 94.9491 97.011 93.7408 97.011 93.7408H96.9989C96.9989 92.8795 97.0015 92.1337 96.9963 91.3078C96.9955 91.1295 97.0256 91.0408 97.2435 91.0477C98.0169 91.0709 98.7929 91.0838 99.5663 91.114C100.258 91.1407 100.906 91.3456 101.514 91.6738C102.441 92.1733 102.999 92.9381 103.152 93.9888C103.27 94.7854 103.22 95.5692 102.882 96.3047ZM17.9749 97.2331L17.9913 92.5505C17.9939 91.846 17.9043 91.1553 17.6735 90.487C17.037 88.6465 15.2818 87.8085 13.4543 88.4691C12.6232 88.7697 11.8782 89.2253 11.1668 89.742C10.7526 90.0435 10.7526 90.0435 10.4528 89.6137C9.60452 88.3976 8.39275 87.9817 6.98204 88.4304C6.06999 88.7197 5.27248 89.215 4.51717 89.7903C4.44655 89.8437 4.30444 89.9031 4.26224 89.8712C4.19162 89.8187 4.14253 89.6938 4.14425 89.5999L4.19593 88.768C4.20023 88.5931 4.16665 88.4174 4.14942 88.234C3.80837 88.352 3.53622 88.47 3.25115 88.5389C2.3701 88.7542 1.48302 88.9523 0.596802 89.1547C0.382353 89.2038 0.155847 89.2683 0.135177 89.5147C0.113646 89.7567 0.347042 89.7971 0.527903 89.8695C0.908571 90.0228 1.28666 90.1856 1.66302 90.3509C1.97909 90.4904 2.09708 90.7428 2.09536 91.0821C2.08933 92.5333 2.09881 93.9828 2.09019 95.434C2.08675 96.0239 2.05919 96.613 2.03249 97.2029C2.00838 97.7257 1.8301 97.9445 1.32369 98.0762C1.05498 98.1469 0.781969 98.1942 0.511539 98.258C0.452114 98.2717 0.350487 98.3096 0.349626 98.3389C0.33843 98.5947 0.32465 98.8565 0.367712 99.1054C0.376324 99.1502 0.646754 99.1502 0.79661 99.1674L0.897375 99.1614C1.9412 99.1459 2.98502 99.1295 4.02971 99.1183C4.58349 99.1123 5.1364 99.1175 5.73755 99.1175L5.80214 98.2821C5.45764 98.2192 5.15018 98.1718 4.84702 98.1055C4.3742 98.0022 4.17267 97.7515 4.16062 97.2744L4.152 96.5915C4.14684 94.8199 4.13995 93.0492 4.13995 91.2776C4.13995 91.0201 4.24674 90.816 4.47325 90.6618C4.95296 90.338 5.45937 90.0805 6.02004 89.9367C7.20166 89.6344 8.22653 90.0547 8.68127 91.0597C8.8251 91.3767 8.93792 91.7272 8.96979 92.0717C9.13687 93.8475 9.06452 95.6252 8.96376 97.401C8.94223 97.7843 8.76223 97.9772 8.38414 98.0711L7.49534 98.2588C7.42386 98.2769 7.31965 98.2287 7.31448 98.2881C7.29467 98.5336 7.30587 98.9099 7.30587 98.9099H7.51773L10.2238 98.9986C10.9653 98.9969 11.7077 99.0865 12.4483 99.1054C12.581 99.108 12.699 99.1278 12.7067 98.9745C12.7188 98.7316 12.7084 98.5034 12.6972 98.2605L12.556 98.2356L11.7938 98.0642C11.2796 97.9427 11.1022 97.7472 11.1005 97.2271C11.0945 95.9447 11.1117 94.6631 11.1005 93.3816C11.0945 92.6487 11.066 91.9158 11.0187 91.1846C11.0058 90.99 11.0359 90.8625 11.1909 90.7531C11.6474 90.4276 12.1409 90.1769 12.6826 90.034C14.3491 89.5948 15.7133 90.5085 15.7994 92.2267C15.8838 93.8837 15.8485 95.5468 15.8356 97.2072C15.8313 97.7851 15.6401 97.96 15.0708 98.115L14.8745 98.1658C14.2914 98.3053 14.2966 98.3053 14.331 98.9246C14.3422 99.1183 14.3956 99.1683 14.6023 99.1631C15.7899 99.1364 16.9776 99.1295 18.1653 99.1192C18.651 99.1149 19.1367 99.1192 19.6655 99.1192L19.7732 98.3131C19.309 98.1899 18.8809 98.0986 18.4675 97.9634C18.1024 97.8394 17.9732 97.6189 17.9749 97.2331ZM58.8744 90.1356C59.3636 89.6817 59.367 89.0823 59.2301 88.4166C58.8425 88.8222 58.4084 89.0091 57.9132 89.0444C57.2492 89.0918 56.5973 89.0341 55.9789 88.7697C54.3064 88.0514 52.6597 88.1022 51.0181 88.8903C49.6376 89.5517 48.7884 90.5826 48.7031 92.1457C48.6489 93.1474 48.8366 94.0956 49.5049 94.8922C49.9054 95.3694 50.4196 95.6786 50.9992 95.8921C51.249 95.9843 51.2679 96.1031 51.0586 96.2625C50.9053 96.3805 50.7425 96.4873 50.5789 96.5897C50.2292 96.8094 49.877 97.0264 49.523 97.2391C49.3155 97.3649 49.2449 97.525 49.3129 97.7705C49.5118 98.4922 50.0243 98.909 50.665 99.2131L50.8984 99.3758L50.6943 99.58C50.0665 100.089 49.4137 100.57 48.8125 101.11C48.3078 101.563 48.1451 102.171 48.2975 102.842C48.6049 104.182 49.4929 105.01 50.7529 105.391C52.9551 106.057 55.0229 105.675 56.9082 104.37C58.0261 103.596 58.8279 102.588 59.0716 101.202C59.3446 99.6437 58.4791 98.2915 56.9297 98.0125C55.9048 97.8265 54.8558 97.7731 53.8189 97.6542C53.3349 97.5991 52.844 97.5664 52.3729 97.4553C51.9724 97.3605 51.7735 97.0341 51.8105 96.7155C51.8475 96.402 52.1808 96.11 52.5624 96.0799C53.3306 96.0179 54.0833 95.8982 54.7912 95.5743C56.667 94.7165 57.5377 93.2145 57.3198 91.1924C57.2914 90.9202 57.2294 90.6515 57.1734 90.3346C57.7737 90.4353 58.3878 90.5878 58.8744 90.1356ZM53.1824 99.6239C53.9455 99.6463 54.8136 99.6936 55.6525 99.9391C56.3906 100.154 56.9977 100.532 57.1769 101.356C57.3931 102.351 56.9142 103.342 55.9505 103.874C55.0479 104.372 54.0678 104.413 53.0739 104.311C52.223 104.223 51.4574 103.928 50.8442 103.3C50.0363 102.472 50.032 101.327 50.8407 100.501C51.5633 99.7643 51.95 99.6118 53.1824 99.6239ZM55.0918 93.6279C54.6474 95.0498 53.3538 95.2462 52.3401 94.7915C51.4763 94.4048 51.1 93.6434 50.9027 92.7744C50.8261 92.4403 50.808 92.0932 50.7632 91.7513C50.7813 91.2613 50.8623 90.791 51.0733 90.3501C51.7201 88.9919 53.309 89.0728 54.1884 89.6878C54.5656 89.9513 54.8283 90.3096 54.9928 90.7342C55.3579 91.685 55.395 92.6539 55.0918 93.6279ZM47.022 98.1606C46.7162 98.1115 46.4088 98.0478 46.1117 97.9574C45.588 97.7972 45.5243 97.699 45.5183 97.1452C45.5028 95.6019 45.4924 94.0586 45.4752 92.5161C45.4666 91.8219 45.3839 91.1372 45.1712 90.4741C44.6114 88.7258 42.8966 87.787 41.1811 88.3029C40.2302 88.5897 39.4138 89.1228 38.6533 89.7489L38.376 89.9616L38.3769 89.6766C38.3949 89.3484 38.4302 89.0203 38.4277 88.6922C38.4259 88.5208 38.3605 88.3485 38.3286 88.1978C37.6801 88.3933 37.0988 88.5897 36.5054 88.7395C35.9103 88.8894 35.3031 88.991 34.7011 89.1133C34.4022 89.1736 34.1826 89.3545 34.1878 89.5603C34.1955 89.8505 34.4358 89.9065 34.646 89.9935C35.0266 90.1494 35.4064 90.307 35.7828 90.4741C36.0515 90.5938 36.1609 90.816 36.1583 91.1045C36.1394 93.1103 36.1273 95.117 36.098 97.1237C36.0894 97.7576 35.9292 97.9247 35.3057 98.0642L35.0335 98.1184C34.4565 98.2175 34.4401 98.2407 34.4797 98.8496L34.4832 98.9504C34.4763 99.1847 34.5788 99.2604 34.8199 99.2579C36.3529 99.2398 37.8868 99.2312 39.4198 99.2372C40.0769 99.2398 40.1476 99.1881 40.1338 98.5129L40.1028 98.2226C39.7273 98.1598 39.3681 98.1141 39.0168 98.0366C38.649 97.9548 38.5172 97.8041 38.4828 97.4303C38.4509 97.0884 38.4406 96.7413 38.4371 96.3968C38.4199 94.8199 38.4061 93.243 38.3984 91.6669C38.3967 91.2699 38.4699 90.9013 38.835 90.6455C39.3888 90.2588 39.9951 90.0348 40.6652 89.9892C42.0328 89.8953 43.0723 90.7057 43.1464 92.0691C43.2377 93.7511 43.2101 95.4391 43.2317 97.1246C43.2334 97.2503 43.211 97.3769 43.1938 97.5018C43.161 97.7481 43.0405 97.9333 42.7907 97.997C42.547 98.0607 42.2998 98.1176 42.0509 98.1555C41.6797 98.2106 41.672 98.208 41.6435 98.5826L41.653 98.835C41.6969 99.2708 41.6978 99.2579 42.1388 99.2536C43.6218 99.2415 45.104 99.2337 46.5862 99.2355C47.2063 99.2372 47.2502 99.2079 47.2554 98.5689L47.2537 98.4173C47.2631 98.2537 47.1899 98.1873 47.022 98.1606ZM67.7365 88.4088C66.182 88.029 64.7076 88.3115 63.3072 89.0358C61.9464 89.7394 61.037 90.8272 60.6907 92.3292C60.3411 93.8476 60.5082 95.3289 61.1791 96.7387C61.6157 97.6542 62.2875 98.3622 63.2021 98.8221C65.3432 99.9003 67.9622 99.4112 69.6416 97.9686C70.9671 96.8309 71.4537 95.316 71.4829 93.441C71.4649 93.2533 71.4468 92.8916 71.3968 92.5333C71.1152 90.4922 69.7019 88.8894 67.7365 88.4088ZM68.9139 96.2935C68.5013 97.9178 67.0966 98.6395 65.512 98.0814C64.7033 97.7972 64.0987 97.2538 63.6922 96.5191C62.7569 94.8311 62.5769 93.0363 63.1091 91.1949C63.4639 89.9685 64.4733 89.2976 65.6739 89.382C66.747 89.457 67.5721 89.972 68.1775 90.8453C68.8157 91.7668 69.062 92.8149 69.1275 93.9156C69.1386 94.0921 69.1292 94.2687 69.1292 94.4461L69.205 94.4547C69.1102 95.0688 69.0654 95.6949 68.9139 96.2935ZM28.6388 88.3821C27.0033 88.0084 25.4712 88.3778 24.0518 89.2089C22.8246 89.9272 22.0314 91.0003 21.7273 92.4024C21.4423 93.7123 21.5585 94.9999 22.0228 96.2547C22.3052 97.0195 22.7333 97.6921 23.3611 98.2166C24.6831 99.3199 26.2282 99.5989 27.8723 99.2914C29.2641 99.0305 30.487 98.4121 31.3758 97.2555C32.2078 96.1738 32.5247 94.9319 32.5574 93.5857C32.5084 93.1594 32.4963 92.7254 32.4059 92.3094C31.9563 90.2329 30.742 88.8618 28.6388 88.3821ZM29.9729 96.2883C29.5741 97.904 28.147 98.6438 26.5735 98.0857C25.5633 97.7266 24.9053 96.9868 24.4893 96.0385C23.8227 94.515 23.6867 92.9295 24.1182 91.3224C24.4489 90.0934 25.4453 89.1883 26.9706 89.4053C27.9067 89.5379 28.6371 90.0159 29.1814 90.7764C29.9169 91.8021 30.1589 92.9768 30.1925 94.211V94.4633L30.2545 94.4728C30.1641 95.0791 30.1193 95.6958 29.9729 96.2883Z" fill="#5F8459"/>
</svg>
